# xmcd CD database file
#
# Track frame offsets:
#	150
#	20894
#	40594
#	59270
#	78207
#	100346
#	120180
#	137675
#	156324
#	174475
#	194507
#	216377
#	233400
#	253569
#
# Disc length: 3627 seconds
#
# Revision: 0
# Processed by: cddbd v1.5.2PL0 Copyright (c) Steve Scherf et al.
# Submitted via: CDex 1.50
#
DISCID=b60e290e
DTITLE=Zacarias Ferreiras - Dime Que faltó
DYEAR=2007
DGENRE=Merengue
TTITLE0=No hay mal que por bien no venga
TTITLE1=Sin ti
TTITLE2=Es tan dificil
TTITLE3=Dime Que faltó
TTITLE4=Con elta me siento bien
TTITLE5=Ay amor
TTITLE6=Desde nino
TTITLE7=Hoy daria yo la vida
TTITLE8=No me olvidare de ti
TTITLE9=Medley amor, hacedlo bien
TTITLE10=Nido de amor
TTITLE11=Dame un carinito
TTITLE12=Es una bomba
TTITLE13=Dime que faltó
EXTD=YEAR: 2007
EXTT0=
EXTT1=
EXTT2=
EXTT3=
EXTT4=
EXTT5=
EXTT6=
EXTT7=
EXTT8=
EXTT9=
EXTT10=
EXTT11=
EXTT12=
EXTT13=
PLAYORDER=
